<?xml version="1.0" encoding="UTF-8"?>
<svg width="700pt" height="700pt" version="1.1" viewBox="0 0 700 700" xmlns="http://www.w3.org/2000/svg" xmlns:xlink="http://www.w3.org/1999/xlink">
 <defs>
  <symbol id="h" overflow="visible">
   <path d="m14.656-0.875c-0.76172 0.39844-1.5547 0.69531-2.375 0.89062-0.8125 0.19531-1.6641 0.29688-2.5469 0.29688-2.6562 0-4.7617-0.73828-6.3125-2.2188-1.5547-1.4883-2.3281-3.5039-2.3281-6.0469 0-2.5508 0.77344-4.5664 2.3281-6.0469 1.5508-1.4883 3.6562-2.2344 6.3125-2.2344 0.88281 0 1.7344 0.10156 2.5469 0.29688 0.82031 0.19922 1.6133 0.49609 2.375 0.89062v3.2969c-0.76172-0.51953-1.5117-0.89844-2.25-1.1406-0.74219-0.23828-1.5234-0.35938-2.3438-0.35938-1.4688 0-2.625 0.46875-3.4688 1.4062-0.83594 0.9375-1.25 2.2344-1.25 3.8906 0 1.6484 0.41406 2.9375 1.25 3.875 0.84375 0.9375 2 1.4062 3.4688 1.4062 0.82031 0 1.6016-0.11719 2.3438-0.35938 0.73828-0.23828 1.4883-0.61719 2.25-1.1406z"/>
  </symbol>
  <symbol id="c" overflow="visible">
   <path d="m10.719-8.7031c-0.33594-0.15625-0.66797-0.26953-1-0.34375-0.32422-0.082031-0.65625-0.125-1-0.125-0.98047 0-1.7344 0.32031-2.2656 0.95312-0.53125 0.625-0.79688 1.5273-0.79688 2.7031v5.5156h-3.8125v-11.969h3.8125v1.9688c0.48828-0.78125 1.0508-1.3477 1.6875-1.7031 0.64453-0.36328 1.4102-0.54688 2.2969-0.54688 0.13281 0 0.27344 0.007812 0.42188 0.015625 0.14453 0.011719 0.36328 0.03125 0.65625 0.0625z"/>
  </symbol>
  <symbol id="a" overflow="visible">
   <path d="m13.781-6.0156v1.0938h-8.9375c0.09375 0.89844 0.41406 1.5703 0.96875 2.0156 0.55078 0.44922 1.3281 0.67188 2.3281 0.67188 0.80078 0 1.625-0.11719 2.4688-0.35938 0.84375-0.23828 1.7109-0.59766 2.6094-1.0781v2.9531c-0.90625 0.33594-1.8125 0.58984-2.7188 0.76562s-1.8125 0.26562-2.7188 0.26562c-2.1562 0-3.8398-0.54688-5.0469-1.6406-1.1992-1.1016-1.7969-2.6484-1.7969-4.6406 0-1.9453 0.58594-3.4766 1.7656-4.5938 1.1758-1.125 2.8008-1.6875 4.875-1.6875 1.875 0 3.375 0.57031 4.5 1.7031 1.1328 1.125 1.7031 2.6367 1.7031 4.5312zm-3.9375-1.2656c0-0.72656-0.21484-1.3125-0.64062-1.75-0.41797-0.44531-0.96875-0.67188-1.6562-0.67188-0.74219 0-1.3438 0.21094-1.8125 0.625-0.46094 0.41797-0.74609 1.0156-0.85938 1.7969z"/>
  </symbol>
  <symbol id="m" overflow="visible">
   <path d="m7.2031-5.3906c-0.80469 0-1.4062 0.13672-1.8125 0.40625-0.39844 0.27344-0.59375 0.67188-0.59375 1.2031 0 0.48047 0.16016 0.85938 0.48438 1.1406 0.32031 0.27344 0.77344 0.40625 1.3594 0.40625 0.71875 0 1.3203-0.25391 1.8125-0.76562 0.48828-0.51953 0.73438-1.1719 0.73438-1.9531v-0.4375zm5.8438-1.4375v6.8281h-3.8594v-1.7656c-0.51172 0.71875-1.0898 1.2461-1.7344 1.5781-0.63672 0.33203-1.418 0.5-2.3438 0.5-1.2422 0-2.2461-0.35938-3.0156-1.0781-0.77344-0.72656-1.1562-1.6719-1.1562-2.8281 0-1.3945 0.47656-2.4219 1.4375-3.0781 0.96875-0.65625 2.4883-0.98438 4.5625-0.98438h2.25v-0.29688c0-0.60156-0.24219-1.0469-0.71875-1.3281-0.48047-0.28125-1.2266-0.42188-2.2344-0.42188-0.8125 0-1.5742 0.085937-2.2812 0.25-0.71094 0.15625-1.3672 0.40234-1.9688 0.73438v-2.9219c0.82031-0.19531 1.6445-0.34766 2.4688-0.45312 0.82031-0.10156 1.6484-0.15625 2.4844-0.15625 2.1562 0 3.7109 0.42969 4.6719 1.2812 0.95703 0.84375 1.4375 2.2266 1.4375 4.1406z"/>
  </symbol>
  <symbol id="b" overflow="visible">
   <path d="m6.0156-15.359v3.3906h3.9375v2.7344h-3.9375v5.0781c0 0.55469 0.10938 0.92969 0.32812 1.125 0.21875 0.19922 0.65625 0.29688 1.3125 0.29688h1.9688v2.7344h-3.2812c-1.5117 0-2.5859-0.3125-3.2188-0.9375-0.625-0.63281-0.9375-1.707-0.9375-3.2188v-5.0781h-1.9062v-2.7344h1.9062v-3.3906z"/>
  </symbol>
  <symbol id="l" overflow="visible">
   <path d="m9.9688-10.219v-6.4062h3.8594v16.625h-3.8594v-1.7344c-0.52344 0.71094-1.1016 1.2305-1.7344 1.5625-0.63672 0.32031-1.3711 0.48438-2.2031 0.48438-1.4688 0-2.6797-0.58203-3.625-1.75-0.94922-1.1758-1.4219-2.6875-1.4219-4.5312s0.47266-3.3477 1.4219-4.5156c0.94531-1.1758 2.1562-1.7656 3.625-1.7656 0.83203 0 1.5664 0.16797 2.2031 0.5 0.63281 0.32422 1.2109 0.83594 1.7344 1.5312zm-2.5156 7.75c0.82031 0 1.4453-0.29688 1.875-0.89062 0.42578-0.60156 0.64062-1.4727 0.64062-2.6094 0-1.1445-0.21484-2.0156-0.64062-2.6094-0.42969-0.59375-1.0547-0.89062-1.875-0.89062-0.8125 0-1.4336 0.29688-1.8594 0.89062-0.42969 0.59375-0.64062 1.4648-0.64062 2.6094 0 1.1367 0.21094 2.0078 0.64062 2.6094 0.42578 0.59375 1.0469 0.89062 1.8594 0.89062z"/>
  </symbol>
  <symbol id="k" overflow="visible">
   <path d="m8.2031-2.4688c0.82031 0 1.4453-0.29688 1.875-0.89062 0.42578-0.60156 0.64062-1.4727 0.64062-2.6094 0-1.1445-0.21484-2.0156-0.64062-2.6094-0.42969-0.59375-1.0547-0.89062-1.875-0.89062-0.82422 0-1.4531 0.30469-1.8906 0.90625-0.4375 0.59375-0.65625 1.4609-0.65625 2.5938 0 1.1367 0.21875 2.0078 0.65625 2.6094 0.4375 0.59375 1.0664 0.89062 1.8906 0.89062zm-2.5469-7.75c0.53125-0.69531 1.1133-1.207 1.75-1.5312 0.64453-0.33203 1.3828-0.5 2.2188-0.5 1.4688 0 2.6758 0.58984 3.625 1.7656 0.94531 1.168 1.4219 2.6719 1.4219 4.5156s-0.47656 3.3555-1.4219 4.5312c-0.94922 1.168-2.1562 1.75-3.625 1.75-0.83594 0-1.5742-0.16797-2.2188-0.5-0.63672-0.33203-1.2188-0.84766-1.75-1.5469v1.7344h-3.8125v-16.625h3.8125z"/>
  </symbol>
  <symbol id="j" overflow="visible">
   <path d="m0.26562-11.969h3.8281l3.2188 8.125 2.7344-8.125h3.8125l-5.0312 13.094c-0.5 1.332-1.0898 2.2656-1.7656 2.7969-0.66797 0.53125-1.5547 0.79688-2.6562 0.79688h-2.2188v-2.5h1.2031c0.64453 0 1.1133-0.10547 1.4062-0.3125 0.30078-0.21094 0.53125-0.57812 0.6875-1.1094l0.10938-0.34375z"/>
  </symbol>
  <symbol id="i" overflow="visible">
   <path d="m0.65625-15.953h3.9375l2.75 11.594 2.7344-11.594h3.9688l2.7344 11.594 2.75-11.594h3.9062l-3.75 15.953h-4.75l-2.8906-12.125-2.8594 12.125h-4.75z"/>
  </symbol>
  <symbol id="g" overflow="visible">
   <path d="m2.0156-15.953h11.094v3.1094h-6.9844v2.9688h6.5625v3.1094h-6.5625v3.6562h7.2188v3.1094h-11.328z"/>
  </symbol>
  <symbol id="z" overflow="visible">
   <path d="m8.3906-9.7656c0.65625 0 1.1484-0.14062 1.4844-0.42188 0.33203-0.28906 0.5-0.71094 0.5-1.2656 0-0.55078-0.16797-0.97266-0.5-1.2656-0.33594-0.28906-0.82812-0.4375-1.4844-0.4375h-2.2656v3.3906zm0.14062 6.9688c0.82031 0 1.4414-0.17188 1.8594-0.51562 0.41406-0.35156 0.625-0.88281 0.625-1.5938 0-0.6875-0.21094-1.2031-0.625-1.5469-0.40625-0.34375-1.0273-0.51562-1.8594-0.51562h-2.4062v4.1719zm3.8281-5.7344c0.88281 0.25 1.5664 0.72656 2.0469 1.4219 0.48828 0.6875 0.73438 1.5312 0.73438 2.5312 0 1.543-0.52344 2.6953-1.5625 3.4531-1.043 0.75-2.625 1.125-4.75 1.125h-6.8125v-15.953h6.1719c2.207 0 3.8047 0.33984 4.7969 1.0156 1 0.66797 1.5 1.7344 1.5 3.2031 0 0.78125-0.18359 1.4492-0.54688 2-0.36719 0.54297-0.89062 0.94531-1.5781 1.2031z"/>
  </symbol>
  <symbol id="y" overflow="visible">
   <path d="m0.10938-15.953h14.688v3.1094h-5.2812v12.844h-4.1094v-12.844h-5.2969z"/>
  </symbol>
  <symbol id="x" overflow="visible">
   <path d="m2.0156-15.953h4.1094v6.0781h6.0625v-6.0781h4.1094v15.953h-4.1094v-6.7656h-6.0625v6.7656h-4.1094z"/>
  </symbol>
  <symbol id="w" overflow="visible">
   <path d="m9.2969-13.25c-1.2617 0-2.2344 0.46484-2.9219 1.3906-0.6875 0.91797-1.0312 2.2188-1.0312 3.9062 0 1.668 0.34375 2.9648 1.0312 3.8906 0.6875 0.92969 1.6602 1.3906 2.9219 1.3906 1.2578 0 2.2344-0.46094 2.9219-1.3906 0.6875-0.92578 1.0312-2.2227 1.0312-3.8906 0-1.6875-0.34375-2.9883-1.0312-3.9062-0.6875-0.92578-1.6641-1.3906-2.9219-1.3906zm0-2.9844c2.5625 0 4.5664 0.73438 6.0156 2.2031 1.457 1.4688 2.1875 3.4961 2.1875 6.0781 0 2.5742-0.73047 4.5938-2.1875 6.0625-1.4492 1.4688-3.4531 2.2031-6.0156 2.2031s-4.5742-0.73438-6.0312-2.2031c-1.4492-1.4688-2.1719-3.4883-2.1719-6.0625 0-2.582 0.72266-4.6094 2.1719-6.0781 1.457-1.4688 3.4688-2.2031 6.0312-2.2031z"/>
  </symbol>
  <symbol id="e" overflow="visible">
   <path d="m2.0156-15.953h6.8125c2.0312 0 3.5859 0.45312 4.6719 1.3594 1.0938 0.89844 1.6406 2.1797 1.6406 3.8438 0 1.6797-0.54688 2.9688-1.6406 3.875-1.0859 0.89844-2.6406 1.3438-4.6719 1.3438h-2.7031v5.5312h-4.1094zm4.1094 2.9844v4.4531h2.2656c0.80078 0 1.4141-0.19141 1.8438-0.57812 0.4375-0.38281 0.65625-0.9375 0.65625-1.6562 0-0.70703-0.21875-1.2539-0.65625-1.6406-0.42969-0.38281-1.043-0.57812-1.8438-0.57812z"/>
  </symbol>
  <symbol id="v" overflow="visible">
   <path d="m13.109-15.438v3.375c-0.875-0.39453-1.7305-0.69141-2.5625-0.89062-0.83594-0.19531-1.6211-0.29688-2.3594-0.29688-0.99219 0-1.7188 0.13672-2.1875 0.40625-0.46875 0.27344-0.70312 0.6875-0.70312 1.25 0 0.42969 0.15625 0.76172 0.46875 1 0.32031 0.24219 0.89844 0.44922 1.7344 0.625l1.75 0.34375c1.7695 0.35547 3.0312 0.89844 3.7812 1.625 0.75 0.73047 1.125 1.7617 1.125 3.0938 0 1.7617-0.52734 3.0742-1.5781 3.9375-1.043 0.85547-2.6328 1.2812-4.7656 1.2812-1.0117 0-2.0273-0.10156-3.0469-0.29688-1.0234-0.1875-2.043-0.46875-3.0625-0.84375v-3.4688c1.0195 0.53125 2.0039 0.9375 2.9531 1.2188 0.95703 0.27344 1.875 0.40625 2.75 0.40625 0.90625 0 1.5938-0.14453 2.0625-0.4375 0.47656-0.30078 0.71875-0.73438 0.71875-1.2969 0-0.48828-0.16406-0.86719-0.48438-1.1406-0.32422-0.26953-0.96875-0.51562-1.9375-0.73438l-1.5938-0.35938c-1.5938-0.33203-2.7617-0.875-3.5-1.625-0.74219-0.75-1.1094-1.7578-1.1094-3.0312 0-1.582 0.50781-2.8008 1.5312-3.6562 1.0312-0.85156 2.5078-1.2812 4.4375-1.2812 0.875 0 1.7734 0.070313 2.7031 0.20312 0.92578 0.125 1.8828 0.32422 2.875 0.59375z"/>
  </symbol>
  <symbol id="f" overflow="visible">
   <path d="m2.0156-15.953h4.1094v12.844h7.2188v3.1094h-11.328z"/>
  </symbol>
  <symbol id="u" overflow="visible">
   <path d="m9.7031-16.625v2.5156h-2.1094c-0.54297 0-0.92188 0.10156-1.1406 0.29688-0.21094 0.19922-0.3125 0.53906-0.3125 1.0156v0.82812h3.2656v2.7344h-3.2656v9.2344h-3.8281v-9.2344h-1.8906v-2.7344h1.8906v-0.82812c0-1.3008 0.36328-2.2656 1.0938-2.8906 0.72656-0.625 1.8516-0.9375 3.375-0.9375z"/>
  </symbol>
  <symbol id="d" overflow="visible">
   <path d="m7.5312-9.5156c-0.84375 0-1.4922 0.30859-1.9375 0.92188-0.44922 0.60547-0.67188 1.4805-0.67188 2.625 0 1.1484 0.22266 2.0273 0.67188 2.6406 0.44531 0.60547 1.0938 0.90625 1.9375 0.90625 0.83203 0 1.4688-0.30078 1.9062-0.90625 0.44531-0.61328 0.67188-1.4922 0.67188-2.6406 0-1.1445-0.22656-2.0195-0.67188-2.625-0.4375-0.61328-1.0742-0.92188-1.9062-0.92188zm0-2.7344c2.0508 0 3.6562 0.55859 4.8125 1.6719 1.1641 1.1055 1.75 2.6406 1.75 4.6094s-0.58594 3.5117-1.75 4.625c-1.1562 1.1055-2.7617 1.6562-4.8125 1.6562-2.0625 0-3.6797-0.55078-4.8438-1.6562-1.168-1.1133-1.75-2.6562-1.75-4.625s0.58203-3.5039 1.75-4.6094c1.1641-1.1133 2.7812-1.6719 4.8438-1.6719z"/>
  </symbol>
  <symbol id="t" overflow="visible">
   <path d="m12.922-9.9688c0.48828-0.75 1.0625-1.3164 1.7188-1.7031 0.66406-0.38281 1.3984-0.57812 2.2031-0.57812 1.375 0 2.4219 0.42969 3.1406 1.2812 0.71875 0.84375 1.0781 2.0742 1.0781 3.6875v7.2812h-3.8438v-6.2344c0.007812-0.09375 0.015625-0.1875 0.015625-0.28125v-0.4375c0-0.84375-0.125-1.457-0.375-1.8438-0.25-0.38281-0.65234-0.57812-1.2031-0.57812-0.73047 0-1.293 0.30469-1.6875 0.90625-0.38672 0.59375-0.58984 1.4609-0.60938 2.5938v5.875h-3.8438v-6.2344c0-1.3203-0.11719-2.1758-0.34375-2.5625-0.23047-0.38281-0.63672-0.57812-1.2188-0.57812-0.73047 0-1.2969 0.30469-1.7031 0.90625-0.39844 0.60547-0.59375 1.4648-0.59375 2.5781v5.8906h-3.8438v-11.969h3.8438v1.75c0.46875-0.66406 1.0039-1.1719 1.6094-1.5156 0.61328-0.34375 1.2891-0.51562 2.0312-0.51562 0.82031 0 1.5508 0.19922 2.1875 0.59375 0.63281 0.39844 1.1133 0.96094 1.4375 1.6875z"/>
  </symbol>
  <symbol id="s" overflow="visible">
   <path d="m13.859-7.2812v7.2812h-3.8438v-5.5469c0-1.0508-0.027344-1.7695-0.078125-2.1562-0.042969-0.39453-0.12109-0.6875-0.23438-0.875-0.14844-0.25-0.35156-0.44141-0.60938-0.57812-0.25-0.14453-0.54297-0.21875-0.875-0.21875-0.79297 0-1.418 0.3125-1.875 0.9375-0.46094 0.61719-0.6875 1.4648-0.6875 2.5469v5.8906h-3.8125v-16.625h3.8125v6.4062c0.58203-0.69531 1.1953-1.207 1.8438-1.5312 0.64453-0.33203 1.3594-0.5 2.1406-0.5 1.3828 0 2.4297 0.42969 3.1406 1.2812 0.71875 0.84375 1.0781 2.0742 1.0781 3.6875z"/>
  </symbol>
  <symbol id="r" overflow="visible">
   <path d="m2.0156-15.953h4.5781l5.8125 10.938v-10.938h3.8906v15.953h-4.5938l-5.7969-10.938v10.938h-3.8906z"/>
  </symbol>
  <symbol id="q" overflow="visible">
   <path d="m1.7031-4.6562v-7.3125h3.8438v1.2031c0 0.64844-0.007813 1.4609-0.015625 2.4375v1.9688c0 0.96094 0.023438 1.6523 0.078125 2.0781 0.050781 0.41797 0.13281 0.72656 0.25 0.92188 0.15625 0.25 0.35938 0.44531 0.60938 0.57812 0.25781 0.13672 0.55078 0.20312 0.875 0.20312 0.80078 0 1.4258-0.30469 1.875-0.92188 0.45703-0.61328 0.6875-1.4688 0.6875-2.5625v-5.9062h3.8281v11.969h-3.8281v-1.7344c-0.57422 0.69922-1.1836 1.2148-1.8281 1.5469-0.64844 0.33203-1.3555 0.5-2.125 0.5-1.3867 0-2.4453-0.42188-3.1719-1.2656-0.71875-0.85156-1.0781-2.0859-1.0781-3.7031z"/>
  </symbol>
  <symbol id="p" overflow="visible">
   <path d="m13.859-7.2812v7.2812h-3.8438v-5.5781c0-1.0312-0.027344-1.7383-0.078125-2.125-0.042969-0.39453-0.12109-0.6875-0.23438-0.875-0.14844-0.25-0.35156-0.44141-0.60938-0.57812-0.25-0.14453-0.54297-0.21875-0.875-0.21875-0.79297 0-1.418 0.3125-1.875 0.9375-0.46094 0.61719-0.6875 1.4648-0.6875 2.5469v5.8906h-3.8125v-11.969h3.8125v1.75c0.58203-0.69531 1.1953-1.207 1.8438-1.5312 0.64453-0.33203 1.3594-0.5 2.1406-0.5 1.3828 0 2.4297 0.42969 3.1406 1.2812 0.71875 0.84375 1.0781 2.0742 1.0781 3.6875z"/>
  </symbol>
  <symbol id="o" overflow="visible">
   <path d="m1.8438-11.969h3.8125v11.75c0 1.6016-0.38672 2.8281-1.1562 3.6719-0.76172 0.84375-1.8711 1.2656-3.3281 1.2656h-1.8906v-2.5h0.65625c0.72656 0 1.2266-0.16797 1.5-0.5 0.26953-0.32422 0.40625-0.96875 0.40625-1.9375zm0-4.6562h3.8125v3.125h-3.8125z"/>
  </symbol>
  <symbol id="n" overflow="visible">
   <path d="m11.5-11.594v3.125c-0.52344-0.35156-1.043-0.61328-1.5625-0.78125-0.52344-0.17578-1.0625-0.26562-1.625-0.26562-1.0742 0-1.9062 0.3125-2.5 0.9375s-0.89062 1.4961-0.89062 2.6094c0 1.1172 0.29688 1.9844 0.89062 2.6094s1.4258 0.9375 2.5 0.9375c0.59375 0 1.1562-0.085937 1.6875-0.26562 0.53906-0.17578 1.0391-0.44141 1.5-0.79688v3.125c-0.59375 0.23047-1.1992 0.39453-1.8125 0.5-0.61719 0.11328-1.2344 0.17188-1.8594 0.17188-2.1562 0-3.8438-0.55078-5.0625-1.6562-1.2188-1.1133-1.8281-2.6562-1.8281-4.625s0.60938-3.5039 1.8281-4.6094c1.2188-1.1133 2.9062-1.6719 5.0625-1.6719 0.625 0 1.2383 0.058594 1.8438 0.17188 0.61328 0.10547 1.2227 0.26562 1.8281 0.48438z"/>
  </symbol>
 </defs>
 <g>
  <path d="m608.12 251.56c-1.6914 0.007812-3.3789 0.19922-5.0312 0.57031l-43.094-70.484-1.4883-2.4492c4.3906-3.9648 6.9844-9.5352 7.1953-15.445 0.21484-5.9102-1.9766-11.652-6.0664-15.922-4.0938-4.2695-9.7383-6.6992-15.652-6.7383-1.6953 0.007812-3.3789 0.19922-5.0312 0.57031-0.97266 0.26953-1.9219 0.60547-2.8438 1.0039l-45.371-73.805c0.35547-0.50391 0.67578-1.0312 0.96484-1.5742 3.3125-6.7383 2.9414-14.703-0.98438-21.098-3.9297-6.3984-10.859-10.336-18.367-10.434-7.5039-0.09375-14.535 3.6641-18.625 9.9609h-1.1367l-80.719 2.4062c-0.20312-7.8164-4.5586-14.93-11.43-18.66-6.8711-3.7305-15.207-3.5156-21.875 0.57031-6.668 4.082-10.648 11.414-10.445 19.227l-88.945 2.4062c-1.9531-6.207-6.5703-11.219-12.594-13.68-6.0273-2.457-12.832-2.1094-18.574 0.95703-5.7383 3.0664-9.8164 8.5273-11.125 14.902-1.3047 6.375 0.29297 13 4.3633 18.078l-38.062 70c-3.3359-1.9844-7.1445-3.0273-11.023-3.0195-6.6172 0-12.879 2.9961-17.031 8.1484-4.1523 5.1484-5.75 11.902-4.3438 18.371 1.4023 6.4648 5.6602 11.945 11.574 14.91l-46.113 84.832c-6.082-1.2969-12.426 0.058593-17.449 3.7188-5.0234 3.6641-8.25 9.2891-8.875 15.477-0.625 6.1836 1.4102 12.344 5.5977 16.938 4.1914 4.5938 10.137 7.1875 16.352 7.1367 2.5039-0.003906 4.9883-0.43359 7.3516-1.2695l40.773 66.809c-4.9297 3.6953-8.0703 9.2969-8.6523 15.434-0.58203 6.1328 1.4492 12.227 5.5938 16.785 4.1484 4.5547 10.023 7.1562 16.184 7.1562 3.3867 0.078126 6.7422-0.64062 9.8008-2.1016l49.262 80.281c-2.9375 6.8672-2.1719 14.754 2.0352 20.926 4.207 6.1719 11.27 9.7695 18.734 9.5469 7.4609-0.22656 14.297-4.2422 18.125-10.652 0.30469-0.53516 0.57031-1.0898 0.78516-1.6641l76.258-2.1875c-0.20312 1.7148-0.20312 3.4492 0 5.1641 0.46094 3.1133 1.5781 6.0977 3.2812 8.75 3.6523 5.6094 9.6719 9.2422 16.34 9.8516 6.668 0.61328 13.25-1.8633 17.859-6.7188s6.7422-11.559 5.7891-18.184l91.219-2.4492c4.2305 6.2891 11.422 9.9414 18.996 9.6484 7.5781-0.29297 14.465-4.4922 18.195-11.09 3.7344-6.6016 3.7812-14.664 0.125-21.309l38.543-71.051h0.003906c2.7656 1.1797 5.7422 1.7891 8.75 1.793 6.3008 0.027344 12.312-2.668 16.484-7.3906 4.1719-4.7227 6.1055-11.02 5.3047-17.27-0.80469-6.2539-4.2656-11.855-9.4961-15.371l42.086-77.57c2.1172 0.63672 4.3125 0.96094 6.5195 0.96484 7.8164 0 15.035-4.1719 18.945-10.938 3.9062-6.7695 3.9062-15.109 0-21.875-3.9102-6.7695-11.129-10.938-18.945-10.938zm-74.812-96.25c3.8945-5.1289 10.934-6.6797 16.617-3.6562 5.6875 3.0234 8.3398 9.7266 6.2617 15.824-2.0781 6.0938-8.2695 9.7812-14.621 8.707-6.3477-1.0781-10.977-6.6055-10.926-13.043 0.007813-2.9023 0.97656-5.7148 2.7539-8.0078zm-72.363-104.7c0.58984-1.0742 1.3242-2.0586 2.1875-2.9297 4.1406-4.1719 10.543-5.082 15.684-2.2344 5.1367 2.8477 7.7578 8.7656 6.4102 14.484 0 0.48047-0.26172 1.0078-0.4375 1.4883-0.22656 0.59766-0.48828 1.1836-0.78516 1.75-1.0625 1.8086-2.5703 3.3125-4.375 4.375-0.29297 0.24609-0.61719 0.44922-0.96484 0.61328-3.9258 2.1445-8.6719 2.1445-12.598 0-4.1992-2.3594-6.7656-6.8242-6.6953-11.641 0.054688-2.0625 0.59375-4.0859 1.5742-5.9062zm-10.324 3.9844c-0.042969 0.72656-0.042969 1.457 0 2.1875 0 5.8008 2.3047 11.363 6.4062 15.465 4.1016 4.1055 9.668 6.4102 15.469 6.4102 3.8516-0.019531 7.6328-1.0273 10.98-2.9336 0.33594-0.17578 0.66016-0.38281 0.96484-0.61328l39.375 64.488-144.02-83.125zm-81.289 5.9062 156.36 90.301v-0.003906c-3.9609 5.957-4.7617 13.473-2.1445 20.125l-158.98 90.562c-2.957-2.6328-6.5703-4.418-10.457-5.1602v-184.54c6.5234-1.2539 12.129-5.4062 15.223-11.285zm-32.461 217.3c0.011719-5.4492 3.3906-10.324 8.4883-12.25 1.4766-0.58203 3.0508-0.87891 4.6367-0.875 1.4023-0.011719 2.793 0.22266 4.1133 0.69922 0.71875 0.22266 1.4219 0.50391 2.0977 0.83203 2.7031 1.4922 4.8047 3.875 5.9531 6.7383 0.63281 1.5391 0.95703 3.1914 0.96094 4.8555-0.003906 2.0352-0.48438 4.043-1.3984 5.8633-1.4062 2.8555-3.8242 5.0859-6.7812 6.2539-0.26172 0.14844-0.53906 0.25391-0.83203 0.30859-1.3203 0.47656-2.7109 0.71094-4.1133 0.69922-1.5859 0.003906-3.1602-0.29297-4.6367-0.875-1.8789-0.70312-3.5703-1.8242-4.9453-3.2812-2.0625-2.2188-3.3125-5.0742-3.543-8.0938-0.046875-0.15625-0.046875-0.32422 0-0.48047-0.019531-0.13281-0.019531-0.26562 0-0.39453zm0-228.95c0.082031-0.95703 0.30469-1.9023 0.65625-2.7969 1.875-5.3281 6.9453-8.8594 12.59-8.7695 5.6445 0.089844 10.598 3.7773 12.305 9.1602 0.21094 0.54687 0.34375 1.1211 0.39453 1.707 0.085938 0.71094 0.085938 1.4336 0 2.1445 0 2.0195-0.46484 4.0078-1.3594 5.8203 0 0.30469-0.30469 0.61328-0.48047 0.875-1.6211 2.7109-4.1719 4.7461-7.1758 5.7305-1.3164 0.47656-2.7109 0.71094-4.1094 0.69922-1.5898 0.003906-3.1602-0.29297-4.6406-0.875-2.5586-0.97656-4.7578-2.7188-6.2969-4.9883-0.35937-0.53906-0.66797-1.1094-0.92187-1.707-0.73828-1.7539-1.0703-3.6523-0.96094-5.5547v-1.4453zm-129.76 3.9375c1.6562-3.0625 4.4648-5.3438 7.8047-6.3359 3.3398-0.99609 6.9375-0.61719 10 1.043 1.8086 1.0625 3.3125 2.5664 4.375 4.375 3.3398 5.0078 2.8438 11.645-1.1992 16.102-4.043 4.4531-10.598 5.5898-15.906 2.7539l-0.57031-0.35156v0.003906c-2.8281-1.7148-4.9062-4.4336-5.8164-7.6133-0.85156-3.3789-0.34766-6.9609 1.3984-9.9766zm0.57031 25.113h-0.003906c0.17578 0.14062 0.36719 0.26172 0.57031 0.35156 6.5977 3.6211 14.594 3.5977 21.172-0.0625 6.5742-3.6602 10.809-10.445 11.203-17.965l76.125-2.0547-143.06 82.555zm122.76-17.5c2.9805 5.8359 8.4258 10.027 14.828 11.418v184.58c-5.3086 1.1836-9.9883 4.3047-13.125 8.75l-159.91-95.988c2.3242-5.625 2.1992-11.969-0.34766-17.5zm-191.67 100.62h-0.003906c0-4.6719 2.4844-8.9922 6.5195-11.344 4.0352-2.3516 9.0195-2.3789 13.082-0.074219h0.39453c2.4688 1.5312 4.3633 3.8398 5.3789 6.5625 0.17969 0.36328 0.30859 0.74219 0.39453 1.1367 0.31641 1.1406 0.48047 2.3164 0.48047 3.5 0.007812 1.2305-0.16797 2.4531-0.52344 3.6328-0.82812 2.9102-2.6367 5.4453-5.1172 7.1758-1.1016 0.73828-2.293 1.3242-3.5469 1.75-1.2617 0.36719-2.5742 0.55859-3.8906 0.56641-1.9102-0.015625-3.7891-0.44922-5.5156-1.2695-1.1758-0.56641-2.2695-1.3047-3.2344-2.1875-2.707-2.4375-4.2734-5.8945-4.332-9.5352zm-35.352 131.78c-0.40234 0.75-0.88672 1.457-1.4453 2.0977-1.9492 2.2812-4.6211 3.8242-7.5664 4.375-2.9805 0.625-6.0859 0.15625-8.75-1.3125-5.1484-2.9141-7.7109-8.9102-6.2578-14.641 1.4492-5.7344 6.5547-9.7891 12.469-9.9023 2.168 0.003906 4.3047 0.54297 6.2109 1.5742 0.69922 0.38672 1.3594 0.83984 1.9688 1.3555 4.9453 3.957 6.3594 10.875 3.3711 16.453zm3.2383 9.8008v-0.003906c1.7812-1.6055 3.2617-3.5156 4.375-5.6406 2.5547-4.7305 3.2812-10.234 2.0391-15.461-1.2461-5.2305-4.3672-9.8164-8.7773-12.891l38.805-71.75v164.94zm59.586 88.941c-0.011719 2.0547-0.50781 4.0781-1.4453 5.9062-0.26172 0.5625-0.57031 1.1055-0.91797 1.6172-1.4297 1.9453-3.3672 3.4609-5.5977 4.375-0.85156 0.39062-1.75 0.66797-2.6719 0.83203-0.81641 0.17578-1.6523 0.26562-2.4922 0.26172-5.0977-0.011719-9.7266-2.9727-11.875-7.5938-2.1445-4.625-1.4219-10.07 1.8555-13.973 0.49609-0.58203 1.0352-1.125 1.6211-1.6211 2.0234-1.6836 4.5078-2.7188 7.1289-2.9727 0.42188-0.046875 0.84766-0.046875 1.2695 0 3.7695-0.03125 7.375 1.5625 9.8867 4.375 2 2.3125 3.1328 5.2539 3.1953 8.3125zm-13.125-21.875c-0.42188-0.042969-0.84766-0.042969-1.2695 0v-186.86c5.7539-0.011719 11.273-2.293 15.355-6.3438l161.39 96.73c-0.30078 1.4375-0.46094 2.9062-0.48047 4.375 0 1.9219 0.25 3.832 0.74219 5.6875l-158.24 95.156c-4.1328-5.5078-10.613-8.75-17.5-8.75zm90.301 137.51c-0.55859 1.0078-1.2344 1.9453-2.0117 2.7969-4.0938 4.3125-10.574 5.3359-15.797 2.4961-3.75-2.0547-6.2656-5.8125-6.7344-10.062-0.34766-2.668 0.15625-5.3789 1.4414-7.7461 0.60547-1.0859 1.3555-2.0898 2.2305-2.9727 4.5977-4.6445 11.91-5.2031 17.156-1.3125 5.2461 3.8945 6.8281 11.055 3.7148 16.801zm10.324-6.3008c-0.023438-5.5547-2.1562-10.895-5.9727-14.934-3.8164-4.0391-9.0234-6.4766-14.57-6.8125-5.543-0.33984-11.012 1.4453-15.289 4.9883l-41.473-67.68 142.93 82.645zm78.75-4.375-161-93.059c3.2656-5.0469 4.3125-11.219 2.8867-17.062l158.42-95.066c3.1445 4.0039 7.582 6.7891 12.559 7.875v189.22c-5.1328 1.0625-9.7031 3.9531-12.863 8.1367zm28.918 19.383v-0.003906c-1.6562 3.0664-4.4648 5.3477-7.8047 6.3398-3.3398 0.99219-6.9375 0.61719-10-1.043-3.3242-1.8438-5.6875-5.0352-6.4766-8.75-0.28516-1.293-0.375-2.6211-0.26172-3.9375-0.027344-0.36719-0.027344-0.73047 0-1.0938v-0.39453c0.20703-1.0586 0.54688-2.0859 1.0078-3.0625v-0.26172c0.375-0.67969 0.81641-1.3242 1.3125-1.9258 0.28125-0.42578 0.58984-0.83594 0.91797-1.2266l0.39453-0.39453c4.1016-4.0195 10.34-4.9062 15.398-2.1875 0.67578 0.36719 1.3047 0.80859 1.8828 1.3125l0.61328 0.57031h-0.003906c0.33984 0.31641 0.66016 0.65234 0.96484 1.0078 0.52344 0.59766 0.99219 1.2422 1.3984 1.9219l0.39453 0.69922v0.003906c0.5 0.9375 0.88281 1.9375 1.1367 2.9727v0.83203c0.14062 0.66406 0.22656 1.3359 0.26172 2.0117 0.25 2.2656-0.097657 4.5586-1.0039 6.6523zm131.25-17.5v-0.003906c-1.6562 3.0664-4.4648 5.3477-7.8047 6.3398-3.3398 0.99219-6.9375 0.61719-10-1.043-5.2656-2.8906-7.8984-8.9883-6.3906-14.801 1.5078-5.8164 6.7695-9.8672 12.777-9.832 2.168 0.003906 4.3047 0.54297 6.2109 1.5742 0.8125 0.42188 1.5625 0.95312 2.2344 1.5742 2.9102 2.4492 4.6211 6.0391 4.6797 9.8438 0.027344 2.2305-0.51562 4.4297-1.5742 6.3906zm1.1797-24.02h0.003906c-0.73437-0.54297-1.5117-1.0234-2.3203-1.4453-4.7852-2.625-10.383-3.3672-15.684-2.0781-5.3047 1.2891-9.9375 4.5156-12.984 9.0469-3.0469 4.5273-4.293 10.031-3.4883 15.43l-76.738 2.0547 143.68-83.125zm-126.88 21.875h0.003906c-1.2422-1.6641-2.7148-3.1367-4.375-4.375-0.73437-0.54297-1.5117-1.0234-2.3203-1.4453-1.9766-1.0352-4.1016-1.7617-6.3008-2.1445v-189c3.5-0.62891 6.7812-2.1328 9.5391-4.375l162.18 92.355c-0.066407 0.97656-0.066407 1.957 0 2.9336-0.015625 4.3711 1.2617 8.6484 3.6758 12.293zm161.52-117.47-159.16-90.738c3.2031-6.0586 3.3789-13.262 0.48437-19.469l158.55-90.258c0.4375 0.4375 0.91797 0.875 1.3984 1.3125 2.2227 1.9453 4.8125 3.4336 7.6133 4.375 2.1133 0.63672 4.3086 0.96094 6.5156 0.96484 1.25-0.027343 2.4961-0.15625 3.7188-0.39453v183.75c-7.6758-0.046875-14.816 3.9414-18.812 10.5zm31.805 11.332 0.003907-0.003906c0 7.25-5.875 13.125-13.125 13.125h-1.4883 0.003906c-1.0352-0.10938-2.0508-0.36328-3.0195-0.74219-2.3555-0.82812-4.3984-2.3555-5.8633-4.375-0.38281-0.44531-0.72266-0.92969-1.0078-1.4453-0.79297-1.3438-1.3281-2.8281-1.5742-4.375-0.066407-0.66797-0.066407-1.3398 0-2.0117-0.003907-2.4766 0.69531-4.9023 2.0117-7 2.293-3.707 6.2773-6.0352 10.633-6.2109h0.78906c2.793 0.027344 5.5078 0.94531 7.7422 2.625 0.36328 0.23828 0.70312 0.51562 1.0078 0.83203 2.6758 2.4844 4.1992 5.9688 4.1992 9.625zm-4.375-30.625 0.003907-167 39.07 63.352c-5.3672 3.9727-8.6211 10.18-8.8438 16.852s2.6172 13.082 7.707 17.402zm52.199-72.934c-5.3086 0-10.094-3.1992-12.125-8.1016-2.0312-4.9062-0.91016-10.551 2.8438-14.305s9.3984-4.875 14.305-2.8438c4.9023 2.0312 8.1016 6.8164 8.1016 12.125 0 7.25-5.875 13.125-13.125 13.125z"/>
  <use x="70" y="625.625" xlink:href="#h"/>
  <use x="86.054688" y="625.625" xlink:href="#c"/>
  <use x="96.839844" y="625.625" xlink:href="#a"/>
  <use x="111.679687" y="625.625" xlink:href="#m"/>
  <use x="126.4375" y="625.625" xlink:href="#b"/>
  <use x="136.894531" y="625.625" xlink:href="#a"/>
  <use x="151.730469" y="625.625" xlink:href="#l"/>
  <use x="175.007812" y="625.625" xlink:href="#k"/>
  <use x="190.664062" y="625.625" xlink:href="#j"/>
  <use x="212.539062" y="625.625" xlink:href="#i"/>
  <use x="236.667969" y="625.625" xlink:href="#g"/>
  <use x="251.613281" y="625.625" xlink:href="#z"/>
  <use x="268.285156" y="625.625" xlink:href="#y"/>
  <use x="283.207031" y="625.625" xlink:href="#g"/>
  <use x="298.148438" y="625.625" xlink:href="#h"/>
  <use x="314.203125" y="625.625" xlink:href="#x"/>
  <use x="332.511719" y="625.625" xlink:href="#w"/>
  <use x="351.105469" y="625.625" xlink:href="#e"/>
  <use x="367.140625" y="625.625" xlink:href="#v"/>
  <use x="390.507812" y="625.625" xlink:href="#f"/>
  <use x="404.449219" y="625.625" xlink:href="#f"/>
  <use x="418.386719" y="625.625" xlink:href="#e"/>
  <use x="70" y="647.5" xlink:href="#u"/>
  <use x="79.515625" y="647.5" xlink:href="#c"/>
  <use x="90.304688" y="647.5" xlink:href="#d"/>
  <use x="105.332031" y="647.5" xlink:href="#t"/>
  <use x="135.742188" y="647.5" xlink:href="#b"/>
  <use x="146.199219" y="647.5" xlink:href="#s"/>
  <use x="161.773438" y="647.5" xlink:href="#a"/>
  <use x="184.222656" y="647.5" xlink:href="#r"/>
  <use x="202.53125" y="647.5" xlink:href="#d"/>
  <use x="217.558594" y="647.5" xlink:href="#q"/>
  <use x="233.132812" y="647.5" xlink:href="#p"/>
  <use x="256.320312" y="647.5" xlink:href="#e"/>
  <use x="272.355469" y="647.5" xlink:href="#c"/>
  <use x="283.140625" y="647.5" xlink:href="#d"/>
  <use x="298.171875" y="647.5" xlink:href="#o"/>
  <use x="305.667969" y="647.5" xlink:href="#a"/>
  <use x="320.503906" y="647.5" xlink:href="#n"/>
  <use x="333.472656" y="647.5" xlink:href="#b"/>
 </g>
</svg>
